<?xml version="1.0" encoding="utf-8"?>
<!-- Generator: Adobe Illustrator 15.0.0, SVG Export Plug-In  -->
<!DOCTYPE svg PUBLIC "-//W3C//DTD SVG 1.1//EN" "http://www.w3.org/Graphics/SVG/1.1/DTD/svg11.dtd" [
	<!ENTITY ns_flows "http://ns.adobe.com/Flows/1.0/">
]>
<svg version="1.1"
	 xmlns="http://www.w3.org/2000/svg" xmlns:xlink="http://www.w3.org/1999/xlink" xmlns:a="http://ns.adobe.com/AdobeSVGViewerExtensions/3.0/"
	 x="0px" y="0px" width="113px" height="113px" viewBox="-2.1 -11 113 113" enable-background="new -2.1 -11 113 113"
	 xml:space="preserve">
<defs>
</defs>
<path d="M54.8,55.6C39.5,55.6,27,43.2,27,27.8C27,12.5,39.5,0,54.8,0c15.3,0,27.8,12.5,27.8,27.8C82.7,43.2,70.2,55.6,54.8,55.6z
	 M54.8,4.1c-13.1,0-23.7,10.6-23.7,23.7c0,13.1,10.6,23.7,23.7,23.7c13.1,0,23.7-10.6,23.7-23.7C78.5,14.8,67.9,4.1,54.8,4.1z"/>
<path stroke="#000000" stroke-width="0.5" stroke-miterlimit="10" d="M34.2,54.5c-0.3,0-0.6,0.1-0.9,0.2l0,0
	C18.8,60.3,7,71.4,0.5,85.5c0,0.1-0.1,0.2-0.1,0.3c-0.1,0.2-0.1,0.5-0.1,0.7c0,0.4,0.1,0.7,0.3,1c0.4,0.7,1,1.1,1.9,1.1
	s1.5-0.5,1.9-1.1h0c0,0,0-0.1,0.1-0.1c0,0,0-0.1,0.1-0.1C10.5,74.1,21.5,63.8,35,58.6c0,0,0.1,0,0.1,0c0.5-0.2,0.8-0.6,1.1-1
	c0.1-0.3,0.2-0.6,0.2-0.9C36.4,55.4,35.4,54.5,34.2,54.5z"/>
<path stroke="#000000" stroke-width="0.5" stroke-miterlimit="10" d="M109.4,86.6c0-0.3-0.1-0.6-0.3-0.9l0,0
	c-6.4-14.2-18.2-25.3-32.6-31c-0.1,0-0.2-0.1-0.3-0.1c-0.2-0.1-0.5-0.1-0.7-0.1c-0.4,0-0.7,0.2-1,0.4c-0.6,0.4-1.1,1.1-1,1.9
	s0.5,1.5,1.2,1.8v0c0,0,0.1,0,0.1,0c0.1,0,0.1,0,0.1,0.1c13.4,5.3,24.3,15.7,30.3,28.9c0,0,0,0.1,0,0.1c0.2,0.5,0.6,0.8,1.1,1
	c0.3,0.1,0.6,0.2,0.9,0.2C108.6,88.9,109.5,87.8,109.4,86.6z"/>
</svg>
