<svg id="Layer_1" data-name="Layer 1" xmlns="http://www.w3.org/2000/svg" viewBox="0 0 273.7 273.7"><defs><style>.cls-1{fill:#f37f98;}.cls-2{fill:#fff;}</style></defs><circle class="cls-1" cx="136.85" cy="136.85" r="136.85"/><path class="cls-2" d="M133.17,158.75l-4.08-61Q128,80,128,72.19q0-10.57,5.54-16.49t14.57-5.92q11,0,14.64,7.58t3.69,21.83a167.72,167.72,0,0,1-.89,17.06L160,159q-.9,11.2-3.82,17.19a10,10,0,0,1-9.68,6q-6.87,0-9.54-5.79T133.17,158.75Zm14.13,83.76a20,20,0,0,1-13.56-5q-5.79-5-5.79-14.06a18.92,18.92,0,0,1,19.09-19A18.84,18.84,0,0,1,160.73,210a18.09,18.09,0,0,1,5.66,13.43q0,8.91-5.73,14A19.48,19.48,0,0,1,147.3,242.51Z" transform="translate(-13.15 -14.33)"/></svg>