<svg id="Layer_1" data-name="Layer 1" xmlns="http://www.w3.org/2000/svg" viewBox="0 0 235.02 275.04"><defs><style>.cls-1{fill:#f15a29;}.cls-2{font-size:39.77px;fill:#fff8f7;font-family:Futura-CondensedExtraBold, Futura Condensed Extra;font-weight:800;}</style></defs><path class="cls-1" d="M47.48,181.48H176c-.44,4.19-.81,7.79-1.25,12H44.4c-8.59,0-9.42-.85-9.42-9.62q0-82,0-164.06c0-8.41.82-9.29,9.07-9.29q53.06,0,106.13,0c10,0,12.79,2.82,12.81,12.87,0,14.6.15,29.2-.05,43.79-.08,5.88,2.43,8,8.16,8,17.07-.18,34.14-.09,51.21-.06,8.85,0,11.79,2.92,11.82,11.83.07,18.06,0,36.11,0,54.53H222.51V87.14H194.62c-9.67,0-19.33,0-29,0C155.16,87,151,82.86,151,72.53c0-16.42,0-32.84,0-49.71H47.48Z" transform="translate(-34.98 -10.52)"/><path class="cls-1" d="M192.45,153.62c-3.86,5.2-7.11,9.94-10.78,14.32a8.24,8.24,0,0,1-5.4,2.85c-34.54.16-69.08.11-103.62.12-4.85,0-6.31-1.86-4.21-6.51,9.11-20.21,18-40.48,27.15-60.69,2.37-5.26,4.29-5.39,7.68-.74,3,4.15,6,8.34,8.8,12.65,1.91,2.94,4.1,3.58,7.28,2.12,4.3-2,8.8-3.47,13.05-5.51,3.95-1.88,6.1-.88,7.29,3.26,1.53,5.32,3.27,10.58,5,15.86,2.23,7,3,7.24,9.28,3.05,5.3-3.52,10.64-7,15.84-10.67,3.39-2.4,5.73-2.38,7.8,1.7C182.41,134.93,187.51,144.3,192.45,153.62Z" transform="translate(-34.98 -10.52)"/><path class="cls-1" d="M226.72,236a42.66,42.66,0,1,1,.44-85.31,42.66,42.66,0,0,1-.44,85.31Zm7.11-52.72c0-4.5.19-9-.05-13.51s-3.17-7.38-7.14-6.56c-2.62.54-6.36,4-6.56,6.38a154.5,154.5,0,0,0,0,26.95c.21,2.38,4,5.78,6.66,6.27,3.92.74,6.89-2.19,7.06-6.64C234,191.88,233.85,187.58,233.83,183.28Zm-6.93,26c-4.8.28-7.47,2.92-7.39,7.43s3,7.29,7.56,7.13c4.19-.14,6.9-2.67,6.93-7.1C234,212.06,231.4,209.65,226.9,209.28Z" transform="translate(-34.98 -10.52)"/><path class="cls-1" d="M226.46,67.61H170.38V20.12Z" transform="translate(-34.98 -10.52)"/><path class="cls-1" d="M129.91,100A10.21,10.21,0,0,1,119.74,89.3,10.48,10.48,0,0,1,130.43,79a10.79,10.79,0,0,1,10.32,10.8A10.6,10.6,0,0,1,129.91,100Z" transform="translate(-34.98 -10.52)"/><text class="cls-2" transform="translate(0 217.5) scale(1.08 1)">Image<tspan x="0" y="47.72">Unavailable</tspan></text></svg>