<?xml version="1.0" encoding="utf-8"?>
<!-- Generator: Adobe Illustrator 15.0.0, SVG Export Plug-In  -->
<!DOCTYPE svg PUBLIC "-//W3C//DTD SVG 1.1//EN" "http://www.w3.org/Graphics/SVG/1.1/DTD/svg11.dtd" [
	<!ENTITY ns_flows "http://ns.adobe.com/Flows/1.0/">
]>
<svg version="1.1"
	 xmlns="http://www.w3.org/2000/svg" xmlns:xlink="http://www.w3.org/1999/xlink" xmlns:a="http://ns.adobe.com/AdobeSVGViewerExtensions/3.0/"
	 x="0px" y="0px" width="142px" height="142px" viewBox="-0.751 -0.75 142 142" enable-background="new -0.751 -0.75 142 142"
	 xml:space="preserve">
<defs>
</defs>
<rect x="23.778" y="0.025" fill="#6E6F71" width="116.161" height="74.854"/>
<path fill="#414142" d="M24.339,74.841v51.175H0V0h27.578c13.51,0,23.712,0.735,30.607,2.204c6.962,1.47,13.091,4.244,18.384,8.325
	c9.262,7.073,13.893,15.998,13.893,26.771c0,11.536-4.944,20.677-14.833,27.424C65.741,71.47,52.403,74.841,35.62,74.841H24.339z
	 M24.339,57.214h9.089c22.354,0,33.529-6.72,33.529-20.16c0-13.003-11.526-19.506-34.576-19.506h-8.043V57.214z"/>
<rect x="23.778" y="74.88" fill="#A6A8AC" width="116.161" height="51.013"/>
<polygon fill="#414142" points="111.293,56.871 111.293,116.29 140.389,116.29 140.389,126.113 96.36,126.113 96.36,56.871 "/>
<path fill="#231F20" d="M42.178,57.019c0,0-7.584,9.643,19.589,23.052c0,0,15.651,7.345,19.495,10.444
	c0,0,19.492,12.732-0.386,27.893c0,0-15.27,12.061-39.081,5.997c0,0-5.474-1.617-7.971-2.63c0,0-5.797-2.83-5.797-3.029v-1.011
	c0,0,9.927,6.67,17.225,7.009c0,0,10.852,1.95,19.493-0.81c0,0,16.997-3.368,12.005-15.498c0,0-1.443-7.815-25.448-18.325
	c0,0-16.999-7.143-19.206-17.047c0,0-1.824-9.655,6.24-16.045H42.178z"/>
<path fill="#231F20" d="M87.937,57.019h7.105l-5.229,13.989c0,0,1.965-7.309,1.196-8.723c0,0-2.832,8.151-3.072,8.253
	C87.937,70.538,90.913,61.623,87.937,57.019"/>
<path fill="#231F20" d="M0.311,127.933h2.523c1.216,0,2.098,0.262,2.652,0.787c0.551,0.532,0.829,1.37,0.829,2.518
	c0,1.617-0.555,2.658-1.668,3.133c-0.559,0.213-1.365,0.322-2.421,0.322v5.389H0.311V127.933z M2.226,133.292
	c0.793,0,1.338-0.138,1.639-0.41c0.307-0.277,0.461-0.772,0.461-1.479c0-0.722-0.147-1.255-0.442-1.592
	c-0.295-0.335-0.759-0.5-1.39-0.5H2.226V133.292z"/>
<path fill="#231F20" d="M13.196,136.075c0,2.755-0.998,4.13-2.993,4.13c-1.997,0-2.993-1.397-2.993-4.192
	c0-2.805,0.995-4.21,2.984-4.21c0.516,0,0.962,0.084,1.338,0.255c0.379,0.164,0.69,0.428,0.936,0.777
	c0.243,0.351,0.428,0.795,0.547,1.329C13.136,134.699,13.196,135.338,13.196,136.075 M11.373,136.036
	c0-1.067-0.084-1.813-0.249-2.235c-0.166-0.422-0.462-0.635-0.885-0.635c-0.417,0-0.713,0.211-0.893,0.629
	c-0.166,0.42-0.248,1.151-0.248,2.195c0,1.042,0.083,1.772,0.248,2.186c0.18,0.419,0.476,0.629,0.893,0.629
	c0.418,0,0.71-0.206,0.876-0.62C11.287,137.798,11.373,137.082,11.373,136.036"/>
<path fill="#231F20" d="M18.611,132.104v1.407c-0.43-0.272-0.881-0.411-1.353-0.411c-0.16,0-0.308,0.025-0.443,0.071
	c-0.136,0.049-0.253,0.113-0.353,0.195c-0.102,0.082-0.182,0.178-0.242,0.291c-0.056,0.112-0.086,0.229-0.086,0.356
	c0,0.388,0.412,0.851,1.235,1.385c0.331,0.219,0.607,0.425,0.827,0.613c0.221,0.19,0.391,0.368,0.508,0.537
	c0.239,0.329,0.359,0.748,0.359,1.252c0,0.729-0.248,1.313-0.746,1.753c-0.491,0.436-1.151,0.65-1.98,0.65
	c-0.51,0-1.024-0.124-1.545-0.385v-1.457c0.508,0.328,0.99,0.491,1.445,0.491c0.804,0,1.207-0.341,1.207-1.016
	c0-0.251-0.074-0.47-0.222-0.654c-0.066-0.088-0.175-0.194-0.323-0.31c-0.145-0.117-0.327-0.25-0.542-0.397
	c-0.743-0.493-1.247-0.906-1.51-1.243c-0.258-0.344-0.387-0.764-0.387-1.251c0-0.653,0.236-1.191,0.708-1.615
	c0.478-0.41,1.103-0.621,1.87-0.621C17.577,131.747,18.102,131.87,18.611,132.104"/>
<path fill="#231F20" d="M20.565,131.938h1.76v1.007c0.483-0.761,1.128-1.143,1.933-1.143c0.879,0,1.474,0.382,1.787,1.143
	c0.467-0.761,1.13-1.143,1.99-1.143c0.668,0,1.179,0.155,1.534,0.454c0.352,0.301,0.529,0.744,0.529,1.332v6.492h-1.768v-5.357
	c0-0.616-0.068-1.024-0.204-1.235c-0.129-0.216-0.38-0.322-0.754-0.322c-0.424,0-0.713,0.11-0.865,0.329
	c-0.147,0.215-0.221,0.625-0.221,1.229v5.357h-1.823v-5.357c0-0.29-0.019-0.535-0.05-0.731c-0.034-0.2-0.091-0.359-0.171-0.478
	c-0.08-0.126-0.184-0.209-0.313-0.267c-0.128-0.056-0.288-0.082-0.478-0.082c-0.404,0-0.695,0.116-0.866,0.355
	c-0.172,0.233-0.257,0.637-0.257,1.202v5.357h-1.76V131.938z"/>
<path fill="#231F20" d="M33.008,128.477c0.319,0,0.596,0.1,0.829,0.3c0.232,0.198,0.35,0.438,0.35,0.717
	c0,0.281-0.117,0.521-0.35,0.722c-0.233,0.201-0.516,0.296-0.846,0.296c-0.333,0-0.615-0.095-0.848-0.296
	c-0.228-0.193-0.34-0.438-0.34-0.731c0-0.271,0.117-0.509,0.35-0.707C32.404,128.576,32.689,128.477,33.008,128.477 M32.179,131.938
	h1.768v8.143h-1.768V131.938z"/>
<path fill="#231F20" d="M44.862,128.186v1.595c-0.583-0.354-1.109-0.531-1.575-0.531c-0.503,0-0.916,0.15-1.233,0.452
	c-0.321,0.291-0.479,0.677-0.479,1.159c0,0.424,0.113,0.79,0.341,1.094c0.117,0.162,0.31,0.371,0.576,0.628
	c0.266,0.259,0.61,0.567,1.037,0.933c0.778,0.674,1.309,1.26,1.59,1.751c0.282,0.479,0.424,1.063,0.424,1.753
	c0,0.942-0.31,1.714-0.93,2.324c-0.62,0.59-1.414,0.888-2.385,0.888c-0.815,0-1.513-0.19-2.089-0.575v-1.62
	c0.681,0.426,1.3,0.636,1.859,0.636c0.521,0,0.93-0.147,1.224-0.441c0.296-0.298,0.443-0.701,0.443-1.211
	c0-0.439-0.113-0.835-0.34-1.188c-0.116-0.164-0.28-0.359-0.489-0.577c-0.208-0.216-0.468-0.459-0.782-0.726
	c-0.486-0.41-0.887-0.772-1.208-1.086c-0.319-0.315-0.556-0.59-0.707-0.827c-0.296-0.462-0.443-1.045-0.443-1.746
	c0-0.95,0.29-1.701,0.866-2.259c0.583-0.562,1.364-0.842,2.347-0.842C43.591,127.768,44.242,127.907,44.862,128.186"/>
<path fill="#231F20" d="M46.291,131.938h1.862l0.532,2.62c0.105,0.521,0.199,1.028,0.281,1.517c0.082,0.487,0.15,0.963,0.196,1.425
	l0.03,0.285l0.037-0.3c0.048-0.379,0.099-0.725,0.151-1.044c0.052-0.316,0.107-0.611,0.169-0.876l0.149-0.623l0.652-3.004h1.281
	l0.617,3.004l0.204,0.945c0.043,0.178,0.082,0.4,0.12,0.665c0.035,0.264,0.073,0.579,0.109,0.938l0.039,0.294
	c0.108-0.977,0.266-1.923,0.468-2.843l0.655-3.004h1.73l-2.238,8.143H52.12l-0.728-3.107c-0.085-0.377-0.161-0.765-0.222-1.161
	c-0.062-0.395-0.113-0.817-0.156-1.265c-0.007-0.048-0.013-0.114-0.019-0.188c-0.005-0.073-0.016-0.158-0.027-0.258
	c-0.036,0.475-0.09,0.94-0.156,1.387c-0.068,0.448-0.151,0.898-0.249,1.343l-0.736,3.249h-1.215L46.291,131.938z"/>
<path fill="#231F20" d="M60.381,137.336h1.64c-0.129,1.913-1.05,2.869-2.764,2.869c-0.51,0-0.947-0.081-1.312-0.239
	c-0.365-0.166-0.668-0.417-0.908-0.758c-0.238-0.341-0.416-0.774-0.53-1.298c-0.112-0.525-0.169-1.149-0.169-1.874
	c0-1.437,0.235-2.5,0.705-3.195c0.469-0.69,1.196-1.038,2.178-1.038c1.909,0,2.865,1.439,2.865,4.313v0.188h-4.025
	c0,1.742,0.405,2.614,1.216,2.614C60.013,138.917,60.381,138.389,60.381,137.336 M60.289,135.219
	c-0.075-0.855-0.188-1.418-0.34-1.683c-0.159-0.301-0.417-0.451-0.773-0.451c-0.361,0-0.62,0.15-0.774,0.451
	c-0.153,0.265-0.267,0.827-0.339,1.683H60.289z"/>
<path fill="#231F20" d="M69.186,131.938v8.143H67.43v-1.048c-0.253,0.447-0.503,0.753-0.755,0.923
	c-0.252,0.164-0.585,0.249-0.995,0.249c-0.791,0-1.372-0.347-1.741-1.038c-0.368-0.691-0.552-1.775-0.552-3.258
	c0-1.409,0.184-2.445,0.552-3.109c0.37-0.664,0.95-0.997,1.741-0.997c0.724,0,1.308,0.35,1.75,1.055v-0.919H69.186z M65.21,135.975
	c0,1.07,0.081,1.816,0.25,2.242c0.171,0.426,0.47,0.638,0.899,0.638c0.393,0,0.681-0.222,0.858-0.663
	c0.176-0.473,0.268-1.198,0.268-2.179c0-0.985-0.091-1.714-0.268-2.187c-0.177-0.441-0.465-0.66-0.858-0.66
	c-0.417,0-0.714,0.211-0.892,0.629C65.295,134.183,65.21,134.908,65.21,135.975"/>
<polygon fill="#231F20" points="71.492,129.655 73.25,129.655 73.25,131.938 74.208,131.938 74.208,133.136 73.25,133.136 
	73.25,140.081 71.492,140.081 71.492,133.136 70.524,133.136 70.524,131.938 71.492,131.938 "/>
<path fill="#231F20" d="M79.229,137.336h1.641c-0.13,1.913-1.052,2.869-2.766,2.869c-0.511,0-0.947-0.081-1.311-0.239
	c-0.367-0.166-0.668-0.417-0.909-0.758c-0.24-0.341-0.415-0.774-0.528-1.298c-0.114-0.525-0.172-1.149-0.172-1.874
	c0-1.437,0.237-2.5,0.708-3.195c0.469-0.69,1.194-1.038,2.176-1.038c1.91,0,2.863,1.439,2.863,4.313v0.188h-4.024
	c0,1.742,0.406,2.614,1.217,2.614C78.857,138.917,79.229,138.389,79.229,137.336 M79.136,135.219
	c-0.075-0.855-0.188-1.418-0.342-1.683c-0.158-0.301-0.418-0.451-0.773-0.451c-0.363,0-0.618,0.15-0.772,0.451
	c-0.155,0.265-0.268,0.827-0.342,1.683H79.136z"/>
<path fill="#231F20" d="M82.59,131.938h1.76v1.013c0.303-0.429,0.6-0.729,0.893-0.903c0.297-0.172,0.687-0.271,1.169-0.301v1.576
	c-0.12-0.016-0.225-0.024-0.311-0.024c-0.633,0-1.085,0.14-1.354,0.418c-0.265,0.272-0.396,0.751-0.396,1.434v4.931h-1.76V131.938z"
	/>
<path fill="#231F20" d="M91.672,132.104v1.407c-0.432-0.272-0.883-0.411-1.354-0.411c-0.16,0-0.308,0.025-0.441,0.071
	c-0.136,0.049-0.255,0.113-0.353,0.195c-0.104,0.082-0.184,0.178-0.243,0.291c-0.058,0.112-0.088,0.229-0.088,0.356
	c0,0.388,0.414,0.851,1.236,1.385c0.332,0.219,0.607,0.425,0.829,0.613c0.221,0.19,0.39,0.368,0.505,0.537
	c0.238,0.329,0.36,0.748,0.36,1.252c0,0.729-0.248,1.313-0.746,1.753c-0.492,0.436-1.151,0.65-1.979,0.65
	c-0.511,0-1.026-0.124-1.55-0.385v-1.457c0.511,0.328,0.992,0.491,1.447,0.491c0.804,0,1.206-0.341,1.206-1.016
	c0-0.251-0.073-0.47-0.223-0.654c-0.066-0.088-0.173-0.194-0.322-0.31c-0.146-0.117-0.327-0.25-0.542-0.397
	c-0.741-0.493-1.246-0.906-1.512-1.243c-0.257-0.344-0.387-0.764-0.387-1.251c0-0.653,0.24-1.191,0.712-1.615
	c0.477-0.41,1.1-0.621,1.866-0.621C90.64,131.747,91.162,131.87,91.672,132.104"/>
<polygon fill="#231F20" points="97.726,127.933 99.641,127.933 99.641,138.695 102.773,138.695 102.773,140.081 97.726,140.081 "/>
<path fill="#231F20" d="M104.789,128.477c0.319,0,0.598,0.1,0.829,0.3c0.232,0.198,0.35,0.438,0.35,0.717
	c0,0.281-0.117,0.521-0.35,0.722c-0.231,0.201-0.515,0.296-0.847,0.296c-0.331,0-0.614-0.095-0.847-0.296
	c-0.226-0.193-0.342-0.438-0.342-0.731c0-0.271,0.117-0.509,0.351-0.707C104.187,128.576,104.471,128.477,104.789,128.477
	 M103.961,131.938h1.771v8.143h-1.771V131.938z"/>
<path fill="#231F20" d="M107.804,131.938h1.759v1.007c0.485-0.761,1.13-1.143,1.934-1.143c0.877,0,1.472,0.382,1.786,1.143
	c0.466-0.761,1.131-1.143,1.988-1.143c0.67,0,1.178,0.155,1.535,0.454c0.35,0.301,0.528,0.744,0.528,1.332v6.492h-1.769v-5.357
	c0-0.616-0.067-1.024-0.202-1.235c-0.127-0.216-0.381-0.322-0.754-0.322c-0.423,0-0.714,0.11-0.868,0.329
	c-0.147,0.215-0.219,0.625-0.219,1.229v5.357h-1.824v-5.357c0-0.29-0.017-0.535-0.052-0.731c-0.032-0.2-0.09-0.359-0.168-0.478
	c-0.079-0.126-0.186-0.209-0.314-0.267c-0.129-0.056-0.288-0.082-0.479-0.082c-0.405,0-0.695,0.116-0.866,0.355
	c-0.173,0.233-0.257,0.637-0.257,1.202v5.357h-1.759V131.938z"/>
<path fill="#231F20" d="M120.246,128.477c0.319,0,0.595,0.1,0.827,0.3c0.233,0.198,0.352,0.438,0.352,0.717
	c0,0.281-0.118,0.521-0.352,0.722c-0.232,0.201-0.515,0.296-0.847,0.296c-0.331,0-0.616-0.095-0.847-0.296
	c-0.227-0.193-0.34-0.438-0.34-0.731c0-0.271,0.116-0.509,0.35-0.707C119.641,128.576,119.926,128.477,120.246,128.477
	 M119.416,131.938h1.77v8.143h-1.77V131.938z"/>
<polygon fill="#231F20" points="123.47,129.655 125.229,129.655 125.229,131.938 126.187,131.938 126.187,133.136 125.229,133.136 
	125.229,140.081 123.47,140.081 123.47,133.136 122.503,133.136 122.503,131.938 123.47,131.938 "/>
<path fill="#231F20" d="M131.206,137.336h1.642c-0.13,1.913-1.05,2.869-2.761,2.869c-0.511,0-0.95-0.081-1.315-0.239
	c-0.364-0.166-0.666-0.417-0.909-0.758c-0.236-0.341-0.414-0.774-0.527-1.298c-0.113-0.525-0.17-1.149-0.17-1.874
	c0-1.437,0.234-2.5,0.704-3.195c0.471-0.69,1.196-1.038,2.178-1.038c1.91,0,2.864,1.439,2.864,4.313v0.188h-4.023
	c0,1.742,0.405,2.614,1.216,2.614C130.838,138.917,131.206,138.389,131.206,137.336 M131.115,135.219
	c-0.073-0.855-0.187-1.418-0.34-1.683c-0.16-0.301-0.419-0.451-0.774-0.451c-0.361,0-0.62,0.15-0.774,0.451
	c-0.152,0.265-0.266,0.827-0.339,1.683H131.115z"/>
<path fill="#231F20" d="M140.012,126.713v13.368h-1.758v-1.048c-0.251,0.447-0.502,0.753-0.754,0.923
	c-0.255,0.164-0.587,0.249-1.006,0.249c-0.786,0-1.36-0.344-1.729-1.03c-0.37-0.693-0.552-1.777-0.552-3.257
	c0-0.713,0.043-1.328,0.137-1.849c0.092-0.518,0.232-0.946,0.42-1.28c0.187-0.336,0.426-0.585,0.724-0.745
	c0.292-0.159,0.642-0.241,1.048-0.241c0.388,0,0.704,0.082,0.959,0.238c0.12,0.072,0.248,0.178,0.378,0.313
	c0.127,0.138,0.252,0.304,0.376,0.504v-6.145H140.012z M136.035,135.975c0,1.07,0.082,1.816,0.248,2.242
	c0.173,0.426,0.472,0.638,0.903,0.638c0.391,0,0.678-0.222,0.854-0.663c0.178-0.473,0.268-1.198,0.268-2.179
	c0-0.985-0.09-1.714-0.268-2.187c-0.177-0.441-0.464-0.66-0.854-0.66c-0.417,0-0.716,0.211-0.894,0.629
	C136.119,134.183,136.035,134.908,136.035,135.975"/>
</svg>
